<mxfile host="65bd71144e">
    <diagram id="hello" name="Page-1">
        <mxGraphModel dx="720" dy="839" grid="1" gridSize="10" guides="1" tooltips="1" connect="1" arrows="1" fold="1" page="1" pageScale="1" pageWidth="850" pageHeight="1100" math="0" shadow="0">
            <root>
                <mxCell id="0"/>
                <mxCell id="1" parent="0"/>
                <mxCell id="2" value="Hello World" style="rounded=1;whiteSpace=wrap;html=1;align=center;verticalAlign=middle;fontSize=24;" parent="1" vertex="1">
                    <mxGeometry x="200" y="200" width="200" height="80" as="geometry"/>
                </mxCell>
            </root>
        </mxGraphModel>
    </diagram>
    <diagram id="WQNQ7PNQLlN9Xw8d_kpA" name="Page-2">
        <mxGraphModel dx="720" dy="839" grid="1" gridSize="10" guides="1" tooltips="1" connect="1" arrows="1" fold="1" page="1" pageScale="1" pageWidth="850" pageHeight="1100" math="0" shadow="0">
            <root>
                <mxCell id="0"/>
                <mxCell id="1" parent="0"/>
                <mxCell id="VOnR6KZ6vRNyDXbAZ4oA-1" value="Subchapter" style="rounded=1;whiteSpace=wrap;html=1;" parent="1" vertex="1">
                    <mxGeometry x="350" y="280" width="120" height="60" as="geometry"/>
                </mxCell>
            </root>
        </mxGraphModel>
    </diagram>
</mxfile>
